# AST/ASF file generated using VICON BodyLanguage
# -----------------------------------------------
:version 1.10
:name VICON
:units
  mass 1.0
  length 0.45
  angle deg
:documentation
   .ast/.asf automatically generated from VICON data using
   VICON BodyBuilder and BodyLanguage model FoxedUp or BRILLIANT.MOD
:root
   order TX TY TZ RX RY RZ
   axis XYZ
   position 0 0 0  
   orientation 0 0 0 
:bonedata
  begin
     id 1 
     name lhipjoint
     direction 0.523584 -0.783993 0.333487 
     length 2.44404 
     axis 0 0 0  XYZ
  end
  begin
     id 2 
     name lfemur
     direction 0.34202 -0.939693 0  
     length 7.29523  
     axis 0 0 20  XYZ
    dof rx ry rz
    limits (-160.0 20.0)
           (-70.0 70.0)
           (-60.0 70.0)
  end
  begin
     id 3 
     name ltibia
     direction 0.34215 -0.939645 0   
     length 7.81194   
     axis 0 0 20   XYZ
    dof rx
    limits (-10.0 170.0)
  end
  begin
     id 4 
     name lfoot
     direction 0.0941847 -0.25877 0.961336   
     length 2.41437   
     axis -90 7.62852e-016 20   XYZ
    dof rx rz
    limits (-45.0 90.0)
           (-70.0 20.0)
  end
  begin
     id 5 
     name ltoes
     direction 1.53526e-011 -4.21768e-011 1   
     length 1.2048   
     axis -90 7.62852e-016 20   XYZ
    dof rx
    limits (-90.0 20.0)
  end
  begin
     id 6 
     name rhipjoint
     direction -0.46599 -0.814191 0.346332   
     length 2.35339  
     axis 0 0 0  XYZ 
  end
  begin
     id 7 
     name rfemur
     direction -0.34202 -0.939693 0   
     length 7.34966   
     axis 0 0 -20   XYZ
    dof rx ry rz
    limits (-160.0 20.0)
           (-70.0 70.0)
           (-70.0 60.0)
  end
  begin
     id 8 
     name rtibia
     direction -0.34202 -0.939693 0   
     length 7.89934   
     axis 0 0 -20   XYZ
    dof rx
    limits (-10.0 170.0)
 end
 begin
     id 9 
     name rfoot
     direction -0.0975468 -0.268008 0.958466   
     length 2.27725  
     axis -90 -7.62852e-016 -20   XYZ
    dof rx rz
    limits (-45.0 90.0)
           (-20.0 70.0)
  end
  begin
     id 10 
     name rtoes
     direction -1.53563e-011 -4.22022e-011 1   
     length 1.13683   
     axis -90 -7.62852e-016 -20   XYZ
    dof rx
    limits (-90.0 20.0)
  end
  begin
     id 11 
     name lowerback
     direction -0.00456414 0.999242 -0.0386661   
     length 2.16968   
     axis 0 0 0   XYZ
    dof rx ry rz
    limits (-20.0 45.0)
           (-30.0 30.0)
           (-30.0 30.0)
  end
  begin
     id 12 
     name upperback
     direction 0.0297078 0.998988 0.0337799   
     length 2.15674   
     axis 0 0 0   XYZ
    dof rx ry rz
    limits (-20.0 45.0)
           (-30.0 30.0)
           (-30.0 30.0)
  end
  begin
     id 13 
     name thorax
     direction 0.0309305 0.998202 0.0513506   
     length 2.16319   
     axis 0 0 0   XYZ
    dof rx ry rz
    limits (-20.0 45.0)
           (-30.0 30.0)
           (-30.0 30.0)
  end
  begin
     id 14 
     name lowerneck
     direction -0.103039 0.983474 0.148872   
     length 1.64318   
     axis 0 0 0   XYZ
    dof rx ry rz
    limits (-20.0 45.0)
           (-30.0 30.0)
           (-30.0 30.0)
  end
  begin
     id 15 
     name upperneck
     direction 0.128124 0.971079 -0.201469   
     length 1.68242   
     axis 0 0 0   XYZ
    dof rx ry rz
    limits (-20.0 45.0)
           (-30.0 30.0)
           (-30.0 30.0)
  end
  begin
     id 16
     name head
     direction 0.0496365 0.994919 -0.0875941  
     length 1.70108  
     axis 0 0 0   XYZ
    dof rx ry rz
    limits (-20.0 45.0)
           (-30.0 30.0)
           (-30.0 30.0)
  end
  begin
     id 17 
     name lclavicle
     direction 0.887148 0.430222 -0.166967  
     length 3.25763  
     axis 0 0 0   XYZ
    dof ry rz
    limits (-20.0 10.0)
           (0.0 20.0)
  end
  begin
     id 18 
     name lhumerus
     direction 1 -4.48962e-011 1.92156e-027   
     length 5.10755   
     axis 180 -30 -90   XYZ
    dof rx ry rz
    limits (-60.0 90.0)
           (-90.0 90.0)
           (-90.0 90.0)
  end
  begin
     id 19
     name lradius
     direction 1 -4.48958e-011 7.10963e-027   
     length 3.36253   
     axis 180 -30 -90   XYZ
    dof rx
    limits (-10.0 170.0)
  end
  begin
     id 20
     name lwrist
     direction 1 -4.48946e-011 1.82396e-026   
     length 1.68127   
     axis -1.15222e-014 90 90   XYZ
    dof ry
    limits (-180.0 0.0)
 end
  begin
     id 21 
     name lhand
     direction 1 -4.48919e-011 3.64759e-026   
     length 0.619088   
     axis -2.32787e-014 90 90   XYZ
    dof rx rz
    limits (-90.0 90.0)
           (-45.0 45.0)
  end
  begin
     id 22 
     name lfingers
     direction 1 -4.49012e-011 7.29744e-026   
     length 0.499125   
     axis -4.6558e-014 90 90   XYZ
    dof rx
    limits (0.0 90.0)
  end
  begin
     id 23
     name lthumb
     direction 0.707107 -6.35028e-011 0.707107   
     length 0.716646   
     axis -90 45 3.78391e-014   XYZ
    dof rx rz
    limits (-45.0 45.0)
           (-45.0 45.0)
  end
  begin
     id 24 
     name rclavicle
     direction -0.82886 0.533198 -0.169384   
     length 3.20647  
     axis 0 0 0   XYZ 
    dof ry rz
    limits (-10.0 20.0)
           (-20.0 0.0)
  end
  begin
     id 25 
     name rhumerus
     direction -1 -4.48973e-011 3.06863e-027  
     length 5.27387   
     axis 180 30 90   XYZ
    dof rx ry rz
    limits (-90.0 60.0)
           (-90.0 90.0)
           (-90.0 90.0)
  end
  begin
     id 26 
     name rradius
     direction -1 -4.48988e-011 9.4797e-027   
     length 3.40144   
     axis 180 30 90   XYZ
    dof rx
    limits (-10.0 170.0)
  end
  begin
     id 27 
     name rwrist
     direction -1 -4.48897e-011 1.82366e-026   
     length 1.70072   
     axis -1.15222e-014 -90 -90   XYZ
    dof ry
    limits (-180.0 0.0)
  end
  begin
     id 28
     name rhand
     direction -1 -4.48965e-011 3.64815e-026   
     length 0.742821   
     axis -2.32787e-014 -90 -90   XYZ
    dof rx rz
    limits (-90.0 90.0)
           (-45.0 45.0)
  end
  begin
     id 29
     name rfingers
     direction -1 -4.49016e-011 7.29754e-026   
     length 0.598881   
     axis -4.6558e-014 -90 -90   XYZ
    dof rx
    limits (0.0 90.0)
  end
  begin
     id 30
     name rthumb
     direction -0.707107 -6.3488e-011 0.707107   
     length 0.859877   
     axis -90 -45 -3.78391e-014   XYZ
    dof rx rz
    limits (-45.0 45.0)
           (-45.0 45.0)
  end
:hierarchy
  begin
    root lhipjoint rhipjoint lowerback
    lhipjoint lfemur
    lfemur ltibia
    ltibia lfoot
    lfoot ltoes
    rhipjoint rfemur
    rfemur rtibia
    rtibia rfoot
    rfoot rtoes
    lowerback upperback
    upperback thorax
    thorax lowerneck lclavicle rclavicle
    lowerneck upperneck
    upperneck head
    lclavicle lhumerus
    lhumerus lradius
    lradius lwrist
    lwrist lhand lthumb
    lhand lfingers
    rclavicle rhumerus
    rhumerus rradius
    rradius rwrist
    rwrist rhand rthumb
    rhand rfingers
  end

#!OML:ASF F:\Work\Patient Classification 1\justin\Session 1\justin.ASF
:FULLY-SPECIFIED
:DEGREES
1912
root 3.17752 15.5054 14.6659 226.896 -94.4808 -255.956
lowerback 33.088 4.61319 4.99322
upperback 12.8117 6.16161 3.28872
thorax -3.10782 2.48234 -1.23569
lowerneck -18.8159 2.53373 -9.34956
upperneck 18.6964 5.12862 4.46844
head 8.57 2.20632 3.68807
rclavicle -4.9895e-014 1.39149e-015
rhumerus -32.3347 -7.44876 -72.0792
rradius 59.1627
rwrist -13.2843
rhand -27.5094 16.8941
rfingers 7.12502
rthumb -0.912039 -13.0836
lclavicle -4.9895e-014 1.39149e-015
lhumerus -30.2835 -26.1387 98.0452
lradius 53.5477
lwrist 17.8873
lhand -24.2589 13.889
lfingers 7.12502
lthumb 2.22731 43.8571
rfemur -26.3168 -19.482 3.94232
rtibia 76.8101
rfoot 24.7157 -6.1635
rtoes 2.97557
lfemur -75.1785 23.1804 -19.7455
ltibia 122.696
lfoot 29.0854 -3.67325
ltoes -3.58164
1913
root 3.17014 15.5129 14.6664 224.956 -94.5542 -253.973
lowerback 34.1276 4.6268 3.91198
upperback 11.8851 6.03737 3.92389
thorax -4.24519 2.333 0.0829049
lowerneck -18.2062 2.89963 -9.85004
upperneck 18.8341 5.81644 3.92526
head 8.46472 2.42291 3.64521
rclavicle -3.3197e-014 3.77691e-014
rhumerus -32.7339 -5.22222 -71.5369
rradius 59.4085
rwrist -13.1106
rhand -27.0215 17.0453
rfingers 7.12502
rthumb -0.440873 -12.934
lclavicle -3.3197e-014 3.77691e-014
lhumerus -31.3591 -24.2006 99.1967
lradius 53.6695
lwrist 17.8039
lhand -25.4033 14.1676
lfingers 7.12502
lthumb 1.12202 44.1444
rfemur -26.3195 -19.6106 3.87932
rtibia 76.7863
rfoot 24.5543 -7.74495
rtoes 7.95597
lfemur -75.4677 22.9191 -19.6909
ltibia 122.99
lfoot 29.5149 -3.54648
ltoes 1.08838
1914
root 3.16185 15.519 14.665 222.902 -94.4928 -251.901
lowerback 33.2321 4.67702 5.22518
upperback 12.8594 6.31879 3.38062
thorax -3.08898 2.5635 -1.32125
lowerneck -18.7576 2.28728 -9.71379
upperneck 18.197 4.90944 4.37167
head 8.40296 2.08549 3.67156
rclavicle -4.01048e-014 2.42517e-014
rhumerus -32.0331 -7.8965 -72.0342
rradius 59.3638
rwrist -11.5246
rhand -26.3363 17.1245
rfingers 7.12502
rthumb 0.220901 -12.8552
lclavicle -4.01048e-014 2.42517e-014
lhumerus -30.2785 -26.447 98.5546
lradius 53.597
lwrist 18.2043
lhand -26.0901 14.2774
lfingers 7.12502
lthumb 0.458753 44.2566
rfemur -26.2871 -19.3528 3.64829
rtibia 76.7771
rfoot 24.054 -9.81454
rtoes 14.1641
lfemur -75.564 22.7763 -19.8862
ltibia 123.179
lfoot 29.7517 -4.12012
ltoes 2.41936
1915
root 3.15642 15.5227 14.6698 221.469 -94.4831 -250.389
lowerback 33.9046 5.10905 5.86816
upperback 12.4989 7.11 2.96004
thorax -3.10517 2.97879 -2.20245
lowerneck -19.4585 1.75152 -8.17007
upperneck 18.3538 3.86001 4.11925
head 8.69704 1.67159 3.23828
rclavicle -1.35174e-014 -3.66758e-014
rhumerus -32.4735 -9.64424 -72.5612
rradius 59.8906
rwrist -12.4409
rhand -27.9295 16.6661
rfingers 7.12502
rthumb -1.31785 -13.3096
lclavicle -1.35174e-014 -3.66758e-014
lhumerus -30.14 -28.7014 98.4829
lradius 53.51
lwrist 18.0509
lhand -26.2811 14.1178
lfingers 7.12502
lthumb 0.274238 44.0974
rfemur -26.3387 -19.011 3.5703
rtibia 76.791
rfoot 23.9475 -10.6432
rtoes 16.6329
lfemur -75.7812 22.6531 -20.1132
ltibia 123.363
lfoot 29.9404 -4.72904
ltoes 1.93818
1916
root 3.1505 15.5203 14.6754 219.45 -94.4734 -248.273
lowerback 33.8303 4.66383 5.40089
upperback 12.4595 6.41019 3.17937
thorax -3.24444 2.60462 -1.52373
lowerneck -19.2692 2.17159 -9.37759
upperneck 18.2027 4.72064 4.33858
head 8.51843 2.01931 3.59921
rclavicle -6.83322e-014 -5.1684e-015
rhumerus -31.9634 -6.98198 -72.7808
rradius 60.0411
rwrist -12.6285
rhand -28.26 16.6467
rfingers 7.12502
rthumb -1.63702 -13.3267
lclavicle -6.83322e-014 -5.1684e-015
lhumerus -30.2043 -26.2322 98.5658
lradius 53.5429
lwrist 17.1673
lhand -26.5046 13.8633
lfingers 7.12502
lthumb 0.0584259 43.8431
rfemur -26.464 -18.9992 3.51278
rtibia 76.8821
rfoot 24.6108 -9.05922
rtoes 11.6255
lfemur -76.0569 22.4199 -20.4059
ltibia 123.558
lfoot 29.9891 -5.07218
ltoes -0.639898
1917
root 3.14371 15.5182 14.6779 216.348 -94.4939 -245.076
lowerback 33.9767 4.63286 5.38127
upperback 12.4053 6.37939 3.15314
thorax -3.35699 2.58676 -1.54081
lowerneck -19.3278 2.11469 -9.48794
upperneck 18.0269 4.66175 4.43214
head 8.46805 2.00147 3.63828
rclavicle -1.39646e-014 -3.10104e-014
rhumerus -31.8794 -6.59704 -72.8651
rradius 60.1934
rwrist -12.3203
rhand -27.659 16.7311
rfingers 7.12502
rthumb -1.05657 -13.246
lclavicle -1.39646e-014 -3.10104e-014
lhumerus -30.1785 -26.1081 98.3928
lradius 53.6
lwrist 16.329
lhand -26.2778 13.5529
lfingers 7.12502
lthumb 0.277438 43.5325
rfemur -26.5788 -19.106 3.33671
rtibia 77.0337
rfoot 25.2439 -6.78529
rtoes 5.06249
lfemur -76.2747 22.1017 -20.7475
ltibia 123.74
lfoot 29.9998 -5.8689
ltoes -3.37205
1918
root 3.13469 15.5125 14.6793 213.775 -94.6522 -242.414
lowerback 34.1183 4.56422 5.36896
upperback 12.3268 6.31367 3.23124
thorax -3.50694 2.54717 -1.4439
lowerneck -19.1981 2.11261 -9.54859
upperneck 17.761 4.67398 4.37794
head 8.35473 2.00635 3.61929
rclavicle -5.30755e-014 1.37161e-014
rhumerus -31.7542 -6.22481 -73.0025
rradius 60.2765
rwrist -12.296
rhand -27.663 16.5879
rfingers 7.12502
rthumb -1.06046 -13.3892
lclavicle -5.30755e-014 1.37161e-014
lhumerus -30.2007 -25.7657 98.4323
lradius 53.5418
lwrist 15.4154
lhand -26.288 13.2189
lfingers 7.12502
lthumb 0.267582 43.1985
rfemur -26.6524 -19.402 3.16345
rtibia 77.2279
rfoot 25.4299 -6.06584
rtoes 5.49227
lfemur -76.5249 21.7869 -20.9349
ltibia 123.986
lfoot 30.0384 -6.67381
ltoes -2.86307
1919
root 3.11989 15.4963 14.6779 211.685 -94.8258 -240.261
lowerback 34.1766 4.49043 5.34242
upperback 12.3174 6.22112 3.30123
thorax -3.55343 2.49661 -1.33216
lowerneck -19.2023 2.17771 -9.27834
upperneck 17.543 4.75452 4.05279
head 8.29246 2.03492 3.46807
rclavicle 3.45885e-014 -7.15625e-015
rhumerus -31.504 -6.23436 -73.2118
rradius 60.2259
rwrist -11.7942
rhand -27.9678 16.2919
rfingers 7.12502
rthumb -1.35484 -13.6836
lclavicle 3.45885e-014 -7.15625e-015
lhumerus -30.1819 -25.3081 98.5358
lradius 53.4682
lwrist 14.7349
lhand -26.6768 13.0194
lfingers 7.12502
lthumb -0.107913 42.9992
rfemur -26.7185 -19.8733 2.99038
rtibia 77.476
rfoot 25.4095 -5.8984
rtoes 4.87045
lfemur -76.7138 21.5979 -21.0764
ltibia 124.367
lfoot 29.7563 -7.60284
ltoes -5.46606
1920
root 3.10275 15.4783 14.6821 209.564 -95.0133 -238.132
lowerback 34.2189 4.42147 5.53641
upperback 12.3682 6.19384 3.35663
thorax -3.49811 2.48736 -1.3645
lowerneck -19.3187 2.13407 -9.10064
upperneck 17.4084 4.72065 3.74372
head 8.28431 2.00205 3.33009
rclavicle -1.01082e-013 0
rhumerus -31.3327 -6.56655 -73.1604
rradius 60.1096
rwrist -10.8543
rhand -28.1072 16.1962
rfingers 7.12502
rthumb -1.48942 -13.7784
lclavicle -1.01082e-013 0
lhumerus -30.1187 -25.2144 98.6884
lradius 53.4218
lwrist 14.1947
lhand -26.7601 12.7831
lfingers 7.12502
lthumb -0.188396 42.7627
rfemur -26.6874 -20.2293 2.80258
rtibia 77.7015
rfoot 25.3142 -5.34013
rtoes 2.54738
lfemur -76.64 21.4377 -21.4028
ltibia 124.786
lfoot 28.6509 -10.0039
ltoes -12.5185
1921
root 3.09017 15.4664 14.6878 209.637 -95.0125 -238.253
lowerback 34.4311 4.52666 5.75904
upperback 12.3974 6.40543 3.45058
thorax -3.51649 2.5889 -1.45469
lowerneck -19.5496 1.98614 -9.08045
upperneck 17.3799 4.56581 3.60691
head 8.33124 1.91687 3.26774
rclavicle -4.6118e-014 9.93923e-015
rhumerus -31.3177 -6.64519 -73.2851
rradius 60.4268
rwrist -11.9969
rhand -29.6949 15.4821
rfingers 7.12502
rthumb -3.02284 -14.4762
lclavicle -4.6118e-014 9.93923e-015
lhumerus -30.0664 -25.4983 98.8924
lradius 53.4365
lwrist 13.8433
lhand -26.6069 12.6249
lfingers 7.12502
lthumb -0.0404507 42.6047
rfemur -26.6643 -20.2689 2.72309
rtibia 77.8359
rfoot 25.2085 -5.14178
rtoes 1.78772
lfemur -76.4542 21.5746 -21.617
ltibia 125.146
lfoot 27.3195 -12.2678
ltoes -18.5522
1922
root 3.08613 15.464 14.6819 212.399 -94.5837 -241.011
lowerback 34.6662 4.88181 5.50908
upperback 12.422 6.7818 3.60568
thorax -3.60529 2.75015 -1.296
lowerneck -19.7019 1.8656 -9.43013
upperneck 17.2864 4.48679 3.75957
head 8.32004 1.87696 3.36751
rclavicle -8.31914e-014 1.15295e-014
rhumerus -30.9931 -7.93595 -72.8335
rradius 59.9465
rwrist -9.61226
rhand -28.4792 16.2909
rfingers 7.12502
rthumb -1.84871 -13.6808
lclavicle -8.31914e-014 1.15295e-014
lhumerus -30.015 -25.4484 99.0829
lradius 53.4885
lwrist 13.4682
lhand -26.4628 12.5616
lfingers 7.12502
lthumb 0.0988018 42.5413
rfemur -26.9255 -19.6958 2.81789
rtibia 77.9345
rfoot 25.1551 -5.369
rtoes 2.29007
lfemur -76.3586 22.2818 -21.4984
ltibia 125.45
lfoot 26.812 -12.7405
ltoes -18.7302
1923
root 3.08771 15.4762 14.674 215.455 -94.1991 -243.971
lowerback 34.7113 5.16619 5.18745
upperback 12.4609 7.03889 3.78815
thorax -3.63256 2.85507 -1.02708
lowerneck -19.8285 1.80779 -9.99187
upperneck 17.2656 4.52903 4.03134
head 8.31197 1.89057 3.55703
rclavicle -4.3832e-014 -2.34566e-014
rhumerus -31.231 -4.95557 -73.1122
rradius 61.0206
rwrist -12.4032
rhand -30.0669 15.1006
rfingers 7.12502
rthumb -3.38208 -14.8523
lclavicle -4.3832e-014 -2.34566e-014
lhumerus -29.885 -24.7191 99.2699
lradius 53.4205
lwrist 12.6954
lhand -26.1356 12.4525
lfingers 7.12502
lthumb 0.414757 42.4319
rfemur -27.2123 -18.76 3.08511
rtibia 77.9109
rfoot 25.1206 -5.71331
rtoes 2.11183
lfemur -76.2768 22.8693 -21.1506
ltibia 125.667
lfoot 26.8214 -11.9418
ltoes -14.7935
1924
root 3.07682 15.4697 14.6611 219.323 -93.875 -247.766
lowerback 34.7297 5.413 4.97799
upperback 12.5274 7.26995 3.83694
thorax -3.59188 2.9573 -0.941787
lowerneck -20.0576 1.84232 -9.99346
upperneck 17.2186 4.5998 4.04919
head 8.3297 1.92875 3.57571
rclavicle -1.65985e-014 -1.90833e-014
rhumerus -31.0204 -5.55975 -73.3773
rradius 60.9056
rwrist -11.1188
rhand -30.5885 14.5622
rfingers 7.12502
rthumb -3.88573 -15.3821
lclavicle -1.65985e-014 -1.90833e-014
lhumerus -29.667 -24.152 99.2246
lradius 53.3475
lwrist 12.064
lhand -25.9152 12.4199
lfingers 7.12502
lthumb 0.627613 42.3987
rfemur -27.5013 -18.8976 3.10246
rtibia 77.9914
rfoot 25.1209 -5.21772
rtoes 1.74051
lfemur -76.1922 23.5113 -20.8185
ltibia 125.997
lfoot 26.2626 -11.5507
ltoes -11.7194
